<?xml version="1.0" ?><!DOCTYPE svg  PUBLIC '-//W3C//DTD SVG 1.1//EN'  'http://www.w3.org/Graphics/SVG/1.1/DTD/svg11.dtd'><svg height="512px" style="enable-background:new 0 0 512 512;" version="1.1" viewBox="0 0 512 512" width="512px" xml:space="preserve" xmlns="http://www.w3.org/2000/svg" xmlns:xlink="http://www.w3.org/1999/xlink"><g id="social_x5F_4"><g><g><g><g><path d="M512,256.003C512,114.619,397.385,0,256.003,0C114.615,0,0,114.619,0,256.003       C0,397.39,114.615,512,256.003,512C397.385,512,512,397.39,512,256.003z" style="fill:#DF5745;"/></g></g></g><path d="M256,512c141.384,0,256-114.613,256-256c0-68.156-26.688-130.043-70.113-175.917L77.741,439.65    C123.838,484.402,186.68,512,256,512z" style="fill:#C64C3C;"/><g><g><g><path d="M332.301,289.406c-2.41,0-4.152,1.154-4.793,3.115c-0.256,0.871-0.564-0.051-0.564,6.088v10.664       h10.434v-10.664c0-5.717-0.334-4.87-0.59-5.754C336.121,290.689,334.455,289.406,332.301,289.406z M282.006,293.086       c-2.23,0-3.947,1.32-4.588,3.486c-0.309,0.986-0.643,2.936-0.643,9.51v19.586c0,6.357,0.385,8.395,0.719,9.445       c0.717,2.295,2.41,3.615,4.641,3.615c2.307,0,3.998-1.371,4.689-3.769c0.283-1.063,0.643-3.179,0.643-10.101v-18.777       c0-6.19-0.438-8.268-0.744-9.279C285.979,294.457,284.262,293.086,282.006,293.086z M368.035,264.875       c-1.922-17.56-17.482-31.89-34.99-33.121c-51.398-2.192-102.693-2.192-154.117,0c-17.457,1.23-33.043,15.561-34.965,33.121       c-1.922,27.749-1.922,55.037,0,82.8c1.922,17.547,17.508,31.89,34.965,33.12c51.424,2.205,102.718,2.179,154.117,0       c17.508-1.23,33.068-15.573,34.99-33.12C369.959,319.912,369.959,292.624,368.035,264.875z M208.434,270.219h-14.586v81.826       h-15.277v-81.826h-14.535v-15.521h44.398V270.219z M250.579,352.148H235.94l0.205-4.076l-4.563-1.129       c-1.154,2.27-2.563,3.961-4.152,5.063c-1.564,1.052-3.332,1.563-5.383,1.563c-2.359,0-4.334-0.5-5.82-1.474       c-1.537-1.013-2.641-2.333-3.357-4.012c-0.82-1.884-1.334-3.845-1.512-5.87c-0.232-2.18-0.334-6.652-0.334-13.317v-50.692       h14.457v46.501c0,8.396,0.258,10.536,0.514,11.472c0.564,2.179,2.357,3.486,4.793,3.486c2.539,0,4.385-1.359,4.896-3.641       c0.23-0.948,0.461-3.114,0.461-11.906v-45.912h14.434V352.148z M301.898,298.713v38.656c0-0.269-0.309,4.179-0.871,7.024       c-0.539,2.524-1.719,4.653-3.641,6.536c-1.846,1.782-4,2.641-6.512,2.641c-1.82,0-3.436-0.512-5.023-1.563       c-1.666-1.103-3.205-2.833-4.641-5.14l-3.205-5.178l-1.178,6.023l-0.846,4.332h-13.664v-97.347h14.457v35.273l4.41-6.806       c1.385-2.114,2.922-3.704,4.537-4.704s3.281-1.475,5.152-1.475c2.205,0,4.127,0.462,5.691,1.334       c1.537,0.871,2.666,2.063,3.461,3.602c0.871,1.705,1.41,3.346,1.563,4.935C302.463,294.867,301.898,298.854,301.898,298.713z        M351.887,317.311h-24.943v16.471c0,5.075,0.41,6.742,0.77,7.639c0.77,1.896,2.461,2.986,4.639,2.986       c2.488,0,4.385-1.307,5.205-3.563c0.59-1.629,0.896-4.371,0.896-8.602v-7.934h13.434v3.436c0,4.64-0.258,8.241-0.719,10.664       c-0.436,2.307-1.486,4.818-3.152,7.51c-1.59,2.539-3.59,4.5-5.998,5.742c-2.385,1.27-5.537,1.91-9.281,1.91       c-3.691,0-6.947-0.653-9.74-1.922c-2.691-1.27-4.82-2.986-6.307-5.152c-1.537-2.282-2.641-4.807-3.256-7.537       c-0.615-2.858-0.947-7.139-0.947-10.062v-22.687c0-9.19,0.717-14.344,2.102-17.982c1.307-3.486,3.408-6.063,6.383-7.883       c2.973-1.846,6.512-2.781,10.434-2.781c4.844,0,8.844,1.127,11.92,3.318c3.127,2.256,5.281,5.166,6.563,8.896       c1.307,3.908,2,12.278,2,19.533V317.311z" style="fill:#FFFFFF;"/></g></g><g><path d="M204.768,168.552l-12.125-38.991h-10.971L198,185.202l0.078,0.436v0.449v39.08h12.869v-39.08      v-0.462l0.102-0.448l14.15-55.615h-10.998C210.973,144.25,206.897,158.375,204.768,168.552z" style="fill:#FFFFFF;"/><path d="M264.088,162.502c-1.463-2.308-3.615-4.217-6.436-5.704c-2.845-1.551-6.408-2.307-10.509-2.307      c-4.82,0-8.793,1.179-11.793,3.5c-2.947,2.294-4.922,5.204-6.049,8.946c-1.205,3.974-1.795,9.716-1.795,17.034v13.395      c0,6.78,0.334,11.895,1,15.15c0.615,3.05,1.666,5.665,3.076,7.78c1.385,2.051,3.385,3.615,5.973,4.666      c2.82,1.115,6.307,1.705,10.408,1.705c3.641,0,6.844-0.667,9.587-1.987c2.641-1.243,4.742-3.115,6.383-5.742      c1.691-2.641,2.793-5.486,3.307-8.498c0.539-3.268,0.82-8.6,0.82-15.855v-12.433c0-5.588-0.309-9.729-0.871-12.356      C266.65,167.347,265.6,164.886,264.088,162.502z M253.167,206.363c0,5.383-0.41,7.293-0.768,8.357      c-0.795,2.23-2.461,3.512-4.615,3.512c-2.152,0-3.82-1.358-4.613-3.743c-0.359-1.115-0.795-3.114-0.795-8.946v-29.672      c0-6.28,0.41-8.293,0.82-9.434c0.795-2.243,2.486-3.524,4.639-3.524c2.18,0,3.846,1.32,4.615,3.64      c0.359,1.103,0.717,3.089,0.717,9.318V206.363z" style="fill:#FFFFFF;"/><path d="M305.18,154.658v46.361c0,9.446-0.256,9.203-0.514,10.331c-0.281,1.269-1.332,4.217-5.023,4.217      c-3.486,0-4.588-2.82-4.896-4.012c-0.281-1.166-0.59-0.846-0.59-9.92v-46.976h-14.893v46.489c0,7.011,0.127,11.728,0.332,13.984      c0.18,2.025,0.666,3.986,1.461,5.845c0.719,1.666,1.795,3.012,3.334,4.05c1.588,1.089,3.691,1.641,6.254,1.641      c2.23,0,4.102-0.564,5.768-1.73c1.641-1.154,3-2.858,4.152-5.217l4.615,1.872l-0.18,3.576h15.074v-70.509H305.18z" style="fill:#FFFFFF;"/></g></g><path d="M368.035,264.875c-1.922-17.56-17.482-31.89-34.99-33.121c-14.484-0.618-28.961-1.042-43.434-1.312    l-24.563,24.255h11.727v35.273l4.41-6.806c1.385-2.114,2.922-3.704,4.537-4.704s3.281-1.475,5.152-1.475    c2.205,0,4.127,0.462,5.691,1.334c1.537,0.871,2.666,2.063,3.461,3.602c0.871,1.705,1.41,3.346,1.563,4.935    c0.873,8.011,0.309,11.997,0.309,11.856v38.656c0-0.269-0.309,4.179-0.871,7.024c-0.539,2.524-1.719,4.653-3.641,6.536    c-1.846,1.782-4,2.641-6.512,2.641c-1.82,0-3.436-0.512-5.023-1.563c-1.666-1.103-3.205-2.833-4.641-5.14l-3.205-5.178    l-1.178,6.023l-0.846,4.332h-13.664v-94.652l-21.076,20.813h9.336v73.943H235.94l0.205-4.076l-4.563-1.129    c-1.154,2.27-2.563,3.961-4.152,5.063c-1.564,1.052-3.332,1.563-5.383,1.563c-2.359,0-4.334-0.5-5.82-1.474    c-1.537-1.013-2.641-2.333-3.357-4.012c-0.82-1.884-1.334-3.845-1.512-5.87c-0.232-2.18-0.334-6.652-0.334-13.317v-20.854    l-17.176,16.959v27.043h-15.277v-11.957l-26.631,26.295c6.581,8.133,16.439,13.668,26.988,14.412    c51.424,2.205,102.718,2.179,154.117,0c17.508-1.23,33.068-15.573,34.99-33.12C369.959,319.912,369.959,292.624,368.035,264.875z     M351.887,317.311h-24.943v16.471c0,5.075,0.41,6.742,0.77,7.639c0.77,1.896,2.461,2.986,4.639,2.986    c2.488,0,4.385-1.307,5.205-3.563c0.59-1.629,0.896-4.371,0.896-8.602v-7.934h13.434v3.436c0,4.64-0.258,8.241-0.719,10.664    c-0.436,2.307-1.486,4.818-3.152,7.51c-1.59,2.539-3.59,4.5-5.998,5.742c-2.385,1.27-5.537,1.91-9.281,1.91    c-3.691,0-6.947-0.653-9.74-1.922c-2.691-1.27-4.82-2.986-6.307-5.152c-1.537-2.282-2.641-4.807-3.256-7.537    c-0.615-2.858-0.947-7.139-0.947-10.062v-22.687c0-9.19,0.717-14.344,2.102-17.982c1.307-3.486,3.408-6.063,6.383-7.883    c2.973-1.846,6.512-2.781,10.434-2.781c4.844,0,8.844,1.127,11.92,3.318c3.127,2.256,5.281,5.166,6.563,8.896    c1.307,3.908,2,12.278,2,19.533V317.311z M332.301,289.406c-2.41,0-4.152,1.154-4.793,3.115c-0.256,0.871-0.564-0.051-0.564,6.088    v10.664h10.434v-10.664c0-5.717-0.334-4.87-0.59-5.754C336.121,290.689,334.455,289.406,332.301,289.406z M230.788,339.664    c2.539,0,4.385-1.359,4.896-3.641c0.23-0.948,0.461-3.114,0.461-11.906v-40.879l-10.664,10.529v30.938    c0,8.396,0.258,10.536,0.514,11.472C226.559,338.356,228.352,339.664,230.788,339.664z M300.564,219.719l4.615,1.872l-0.18,3.576    h15.074v-24.803l-26.119,25.791c0.871-0.286,1.689-0.681,2.457-1.219C298.053,223.782,299.412,222.077,300.564,219.719z     M282.135,338.729c2.307,0,3.998-1.371,4.689-3.769c0.283-1.063,0.643-3.179,0.643-10.101v-18.777c0-6.19-0.438-8.268-0.744-9.279    c-0.744-2.346-2.461-3.717-4.717-3.717c-2.23,0-3.947,1.32-4.588,3.486c-0.309,0.986-0.643,2.936-0.643,9.51v19.586    c0,6.357,0.385,8.395,0.719,9.445C278.211,337.408,279.904,338.729,282.135,338.729z" style="fill:#F1F2F2;"/></g></g><g id="Layer_1"/></svg>